# xmcd
#
# Track frame offsets: 
#        150
#        13750
#        26386
#        40200
#        51521
#        61856
#        71983
#        85559
#        96450
#        106882
#        117840
#        128297
#
# Disc length: 1854 seconds
#
# Revision: 0
# Processed by: cddbd v1.5.2PL0 Copyright (c) Steve Scherf et al.
# Submitted via: ExactAudioCopy v1.0b1
#
DISCID=98073c0c
DTITLE=Johnny Cash - The Junkie And The Juicehead Minus Me
DYEAR=1974
DGENRE=Country
TTITLE0=The Junkie And The Juicehead (Minus Me)
TTITLE1=Don't Take Your Guns To Town
TTITLE2=Broken Freedom Song
TTITLE3=I Do Believe
TTITLE4=Ole Slewfoot
TTITLE5=Keep On The Sunny Side
TTITLE6=Father And Daughter (Father And Son)
TTITLE7=Crystal Chandeliers And Burgundy
TTITLE8=Friendly Gates
TTITLE9=Billy and Rex and Oral and Bob
TTITLE10=Jesus
TTITLE11=Lay Back With My Woman
EXTD=
EXTT0=
EXTT1=
EXTT2=
EXTT3=
EXTT4=
EXTT5=
EXTT6=
EXTT7=
EXTT8=
EXTT9=
EXTT10=
EXTT11=
PLAYORDER=
